<svg width="31" height="16" viewBox="0 0 31 16" fill="none" xmlns="http://www.w3.org/2000/svg">
<path d="M30.3536 8.35355C30.5488 8.15829 30.5488 7.84171 30.3536 7.64645L27.1716 4.46447C26.9763 4.2692 26.6597 4.2692 26.4645 4.46447C26.2692 4.65973 26.2692 4.97631 26.4645 5.17157L29.2929 8L26.4645 10.8284C26.2692 11.0237 26.2692 11.3403 26.4645 11.5355C26.6597 11.7308 26.9763 11.7308 27.1716 11.5355L30.3536 8.35355ZM0 8.5H0.9375V7.5H0V8.5ZM2.8125 8.5H4.6875V7.5H2.8125V8.5ZM6.5625 8.5H8.4375V7.5H6.5625V8.5ZM10.3125 8.5H12.1875V7.5H10.3125V8.5ZM14.0625 8.5H15.9375V7.5H14.0625V8.5ZM17.8125 8.5H19.6875V7.5H17.8125V8.5ZM21.5625 8.5H23.4375V7.5H21.5625V8.5ZM25.3125 8.5H27.1875V7.5H25.3125V8.5ZM29.0625 8.5H30V7.5H29.0625V8.5ZM30.7071 8.70711C31.0976 8.31658 31.0976 7.68342 30.7071 7.29289L24.3431 0.928932C23.9526 0.538408 23.3195 0.538408 22.9289 0.928932C22.5384 1.31946 22.5384 1.95262 22.9289 2.34315L28.5858 8L22.9289 13.6569C22.5384 14.0474 22.5384 14.6805 22.9289 15.0711C23.3195 15.4616 23.9526 15.4616 24.3431 15.0711L30.7071 8.70711ZM0 9H0.9375V7H0V9ZM2.8125 9H4.6875V7H2.8125V9ZM6.5625 9H8.4375V7H6.5625V9ZM10.3125 9H12.1875V7H10.3125V9ZM14.0625 9H15.9375V7H14.0625V9ZM17.8125 9H19.6875V7H17.8125V9ZM21.5625 9H23.4375V7H21.5625V9ZM25.3125 9H27.1875V7H25.3125V9ZM29.0625 9H30V7H29.0625V9Z" fill="white"/>
</svg>
